# xmcd
#
# Track frame offsets:
#	150
#	3304
#	10739
#	20803
#	30812
#	34976
#	47629
#	56627
#	70138
#	79776
#	86905
#	96569
#	101803
#	107960
#	112604
#	120878
#	138003
#	147375
#	151266
#	159075
#	163841
#	177050
#	185989
#	206671
#	216650
#
# Disc length: 2951 seconds
#
# Revision: 0
# Processed by: cddbd v1.5.2PL0 Copyright (c) Steve Scherf et al.
# Submitted via: dBpowerAMP V4.0
#
DISCID=520b8519
DTITLE=Ballendorfer Stubensaenger - I Gang et Hoim bis Hellat
DYEAR=1900
DGENRE=Volksmusik
TTITLE0=Allaweil fidel
TTITLE1=Juchhe, was rompelt om'd Scheiterbeig
TTITLE2=Ben i mit meim Verlanga
TTITLE3=Hoi sott i gau
TTITLE4=Heut Nacht hot's a Schneele gschniea
TTITLE5=S'sitzt a kloes Vögale em Dannawald
TTITLE6=Dui wo an Schäfer nemmt,dui hot zwei Glück
TTITLE7=Weib,mach dass da hoimkommsch
TTITLE8=I wois a greana Lenda
TTITLE9=Ei Mädle wennde's schnaderet 
TTITLE10=Es wohnt eine Müllerin z'Schaffhausen an dem  Rhein
TTITLE11=Mei Muater bacht Küachla
TTITLE12=Am Medeg mach i blau
TTITLE13=Mei Muater hot g'sait
TTITLE14=Es isch scho Zeit
TTITLE15=Was duat mer de Kender en Schoppa scho nei?
TTITLE16=D'Frau will ens Städtle gau
TTITLE17=Mei Schatz hot d'Gaes austrieba 
TTITLE18=Worom hat denn mei Vater sei Schemmele verkauft?
TTITLE19=Ob i seng oder ob i pfeif
TTITLE20=Wia machets denn dia Baura
TTITLE21=Was braucht ma auf em Bauradorf?
TTITLE22=Mir hend dahoim an alda Schittstoi
TTITLE23=Mei Nachbre isch a fleißigs Weib
TTITLE24=I gang et hoim bis hellet
EXTD=
EXTT0=
EXTT1=
EXTT2=
EXTT3=
EXTT4=
EXTT5=
EXTT6=
EXTT7=
EXTT8=
EXTT9=
EXTT10=
EXTT11=
EXTT12=
EXTT13=
EXTT14=
EXTT15=
EXTT16=
EXTT17=
EXTT18=
EXTT19=
EXTT20=
EXTT21=
EXTT22=
EXTT23=
EXTT24=
PLAYORDER=
